# xmcd
#
# Track frame offsets: 
#        150
#        16202
#        31700
#        45417
#        61162
#        74977
#        89102
#        104805
#        119410
#        134935
#        163705
#        176930
#        190770
#        204482
#        218185
#        231577
#        243692
#        257065
#
# Disc length: 3604 seconds
#
# Revision: 1
# Processed by: cddbd v1.5.2PL0 Copyright (c) Steve Scherf et al.
# Submitted via: ExactAudioCopyFreeDBPlugin 1.0
#
DISCID=200e1212
DTITLE=Bessie Smith - Empress Of The Blues
DYEAR=1920
DGENRE=Blues
TTITLE0=Gimme A Pig Foot And A Bottle Of Beer
TTITLE1=Down Hearted Blues
TTITLE2=Yellow Dog Blues
TTITLE3=Careless Love
TTITLE4=A Good Man Is Hard To Find
TTITLE5=St. Louis Blues
TTITLE6=Do Your Duty
TTITLE7=Cold In Hand Blues
TTITLE8=Send me to the 'Lectric Chair
TTITLE9=Empty Bed Blues
TTITLE10=Nobody's Blues But Mine
TTITLE11=Alexander's Ragtime Band
TTITLE12=Them's Graveyard Words
TTITLE13=New Orleans Hop Scotch Blues
TTITLE14=One And Two Blues
TTITLE15=Take Me For A Buggy Ride
TTITLE16=Squeeze Me
TTITLE17=Nobody Knows You When You're Down And Out
EXTD=YEAR: 1920
EXTT0=
EXTT1=
EXTT2=
EXTT3=
EXTT4=
EXTT5=
EXTT6=
EXTT7=
EXTT8=
EXTT9=
EXTT10=
EXTT11=
EXTT12=
EXTT13=
EXTT14=
EXTT15=
EXTT16=
EXTT17=
PLAYORDER=
